<svg width="28" height="33" viewBox="0 0 28 33" fill="none" xmlns="http://www.w3.org/2000/svg">
<path fill-rule="evenodd" clip-rule="evenodd" d="M18.4204 5.3022C17.3008 6.65415 15.4207 7.66812 13.9209 7.66812C13.7519 7.66812 13.5829 7.64699 13.4773 7.62587C13.4562 7.54137 13.4139 7.28788 13.4139 7.03439C13.4139 5.3022 14.28 3.61225 15.2306 2.53492C16.4347 1.11959 18.4415 0.0633729 20.1103 0C20.1526 0.190119 20.1737 0.422486 20.1737 0.654853C20.1737 2.36592 19.4343 4.07699 18.4204 5.3022ZM11.074 32.2397C10.3212 32.563 9.6078 32.8694 8.63984 32.8694C6.56966 32.8694 5.1332 30.9682 3.48551 28.6445C1.5632 25.8984 0 21.6524 0 17.6388C0 11.1748 4.20373 7.75262 8.3441 7.75262C9.55255 7.75262 10.6567 8.19573 11.6386 8.58974C12.4245 8.90513 13.1321 9.18907 13.7519 9.18907C14.2896 9.18907 14.9596 8.92429 15.7405 8.61569C16.8313 8.18465 18.1384 7.66812 19.6033 7.66812C20.5328 7.66812 23.9338 7.75262 26.173 10.9635C26.1602 10.9735 26.1328 10.9916 26.0929 11.0179C25.542 11.3816 22.603 13.3217 22.603 17.3008C22.603 22.2228 26.8912 23.9761 27.0391 24.0183C27.0353 24.0278 27.0266 24.0549 27.0126 24.0979C26.8717 24.5342 26.1997 26.6141 24.7577 28.729C23.3423 30.757 21.8425 32.8272 19.6033 32.8272C18.4997 32.8272 17.7965 32.5157 17.0704 32.1942C16.2955 31.851 15.4946 31.4963 14.1533 31.4963C12.8047 31.4963 11.9148 31.8785 11.074 32.2397Z" fill="white"/>
<style xmlns="" id="autoconsent-prehide"/></svg>