<svg width="156" height="38" viewBox="0 0 156 38" fill="none" xmlns="http://www.w3.org/2000/svg">
<path d="M28.2794 19.8795C28.2643 17.3486 29.4335 15.4412 31.7945 14.0348C30.474 12.1793 28.4762 11.1588 25.8427 10.9621C23.3493 10.7691 20.6212 12.3871 19.6223 12.3871C18.5667 12.3871 16.1527 11.0289 14.2533 11.0289C10.3333 11.0883 6.16748 14.0941 6.16748 20.2098C6.16748 22.017 6.50423 23.8836 7.17773 25.8059C8.07825 28.3367 11.3247 34.5377 14.7111 34.4375C16.4819 34.3967 17.7343 33.2055 20.0385 33.2055C22.2747 33.2055 23.4325 34.4375 25.4076 34.4375C28.8243 34.3893 31.7604 28.7523 32.6156 26.2141C28.0335 24.0951 28.2794 20.0094 28.2794 19.8795ZM24.3028 8.56113C26.2211 6.32715 26.0471 4.29355 25.9903 3.5625C24.2952 3.65898 22.3352 4.69434 21.219 5.96719C19.9893 7.33281 19.2667 9.02129 19.4218 10.925C21.2531 11.0623 22.9255 10.1383 24.3028 8.56113Z" fill="white"/>
<path d="M46.6469 9.99998H43.9009V1.27271H46.7685C47.6317 1.27271 48.3704 1.44742 48.9844 1.79685C49.5985 2.14344 50.0692 2.64202 50.3965 3.29259C50.7239 3.94032 50.8875 4.71589 50.8875 5.6193C50.8875 6.52839 50.7224 7.31106 50.3922 7.96731C50.062 8.62072 49.5811 9.12356 48.9497 9.47583C48.3182 9.82526 47.5506 9.99998 46.6469 9.99998ZM44.9784 9.06248H46.5773C47.3131 9.06248 47.9228 8.92327 48.4066 8.64486C48.8903 8.36645 49.2509 7.97015 49.4884 7.45594C49.726 6.94174 49.8447 6.32952 49.8447 5.6193C49.8447 4.91475 49.7274 4.30822 49.4928 3.79969C49.2582 3.28833 48.9077 2.89628 48.4413 2.62356C47.975 2.34799 47.3942 2.2102 46.699 2.2102H44.9784V9.06248Z" fill="white"/>
<path d="M55.0225 10.1363C54.42 10.1363 53.8914 9.99572 53.4366 9.71447C52.9847 9.43322 52.6313 9.03975 52.3764 8.53407C52.1244 8.02839 51.9984 7.43748 51.9984 6.76134C51.9984 6.07952 52.1244 5.48435 52.3764 4.97583C52.6313 4.46731 52.9847 4.07242 53.4366 3.79117C53.8914 3.50992 54.42 3.3693 55.0225 3.3693C55.625 3.3693 56.1522 3.50992 56.604 3.79117C57.0588 4.07242 57.4122 4.46731 57.6642 4.97583C57.9191 5.48435 58.0466 6.07952 58.0466 6.76134C58.0466 7.43748 57.9191 8.02839 57.6642 8.53407C57.4122 9.03975 57.0588 9.43322 56.604 9.71447C56.1522 9.99572 55.625 10.1363 55.0225 10.1363ZM55.0225 9.23293C55.4802 9.23293 55.8567 9.11787 56.1522 8.88776C56.4476 8.65765 56.6663 8.35509 56.8082 7.98009C56.9502 7.60509 57.0211 7.19884 57.0211 6.76134C57.0211 6.32384 56.9502 5.91617 56.8082 5.53833C56.6663 5.16049 56.4476 4.85509 56.1522 4.62214C55.8567 4.38918 55.4802 4.2727 55.0225 4.2727C54.5648 4.2727 54.1883 4.38918 53.8928 4.62214C53.5974 4.85509 53.3787 5.16049 53.2367 5.53833C53.0948 5.91617 53.0238 6.32384 53.0238 6.76134C53.0238 7.19884 53.0948 7.60509 53.2367 7.98009C53.3787 8.35509 53.5974 8.65765 53.8928 8.88776C54.1883 9.11787 54.5648 9.23293 55.0225 9.23293Z" fill="white"/>
<path d="M60.6521 9.99998L58.6187 3.45452H59.6962L61.1387 8.46589H61.2083L62.6334 3.45452H63.7283L65.1361 8.44884H65.2056L66.6481 3.45452H67.7256L65.6922 9.99998H64.6842L63.2243 4.97157H63.12L61.6601 9.99998H60.6521Z" fill="white"/>
<path d="M69.862 6.06248V9.99998H68.8366V3.45452H69.8272V4.47725H69.9141C70.0705 4.14486 70.308 3.87782 70.6267 3.67611C70.9453 3.47157 71.3566 3.3693 71.8606 3.3693C72.3125 3.3693 72.7079 3.4602 73.0468 3.64202C73.3857 3.821 73.6493 4.09373 73.8376 4.4602C74.0258 4.82384 74.12 5.28407 74.12 5.84089V9.99998H73.0946V5.90907C73.0946 5.39486 72.9584 4.9943 72.6862 4.70736C72.4139 4.41759 72.0402 4.2727 71.5652 4.2727C71.2378 4.2727 70.9453 4.34231 70.6875 4.48151C70.4326 4.62072 70.2313 4.82384 70.0835 5.09089C69.9358 5.35793 69.862 5.6818 69.862 6.06248Z" fill="white"/>
<path d="M76.7744 1.27271V9.99998H75.749V1.27271H76.7744Z" fill="white"/>
<path d="M81.119 10.1363C80.5165 10.1363 79.9879 9.99572 79.5331 9.71447C79.0813 9.43322 78.7279 9.03975 78.473 8.53407C78.221 8.02839 78.095 7.43748 78.095 6.76134C78.095 6.07952 78.221 5.48435 78.473 4.97583C78.7279 4.46731 79.0813 4.07242 79.5331 3.79117C79.9879 3.50992 80.5165 3.3693 81.119 3.3693C81.7215 3.3693 82.2487 3.50992 82.7006 3.79117C83.1554 4.07242 83.5087 4.46731 83.7607 4.97583C84.0156 5.48435 84.1431 6.07952 84.1431 6.76134C84.1431 7.43748 84.0156 8.02839 83.7607 8.53407C83.5087 9.03975 83.1554 9.43322 82.7006 9.71447C82.2487 9.99572 81.7215 10.1363 81.119 10.1363ZM81.119 9.23293C81.5767 9.23293 81.9533 9.11787 82.2487 8.88776C82.5442 8.65765 82.7629 8.35509 82.9048 7.98009C83.0467 7.60509 83.1177 7.19884 83.1177 6.76134C83.1177 6.32384 83.0467 5.91617 82.9048 5.53833C82.7629 5.16049 82.5442 4.85509 82.2487 4.62214C81.9533 4.38918 81.5767 4.2727 81.119 4.2727C80.6614 4.2727 80.2848 4.38918 79.9894 4.62214C79.6939 4.85509 79.4752 5.16049 79.3333 5.53833C79.1913 5.91617 79.1204 6.32384 79.1204 6.76134C79.1204 7.19884 79.1913 7.60509 79.3333 7.98009C79.4752 8.35509 79.6939 8.65765 79.9894 8.88776C80.2848 9.11787 80.6614 9.23293 81.119 9.23293Z" fill="white"/>
<path d="M87.4276 10.1534C87.0047 10.1534 86.6208 10.0753 86.2761 9.91901C85.9315 9.75992 85.6577 9.53123 85.455 9.23293C85.2522 8.9318 85.1508 8.56816 85.1508 8.14202C85.1508 7.76702 85.2261 7.46305 85.3768 7.23009C85.5274 6.9943 85.7287 6.80964 85.9807 6.67611C86.2327 6.54259 86.5108 6.44316 86.8149 6.37782C87.122 6.30964 87.4305 6.25566 87.7404 6.21589C88.1459 6.16475 88.4747 6.1264 88.7267 6.10083C88.9816 6.07242 89.167 6.02555 89.2828 5.9602C89.4016 5.89486 89.461 5.78123 89.461 5.6193V5.5852C89.461 5.16475 89.3437 4.83805 89.109 4.60509C88.8773 4.37214 88.5254 4.25566 88.0532 4.25566C87.5637 4.25566 87.1799 4.36077 86.9018 4.571C86.6237 4.78123 86.4282 5.00566 86.3153 5.2443L85.342 4.90339C85.5158 4.50566 85.7475 4.196 86.0372 3.97441C86.3297 3.74998 86.6484 3.59373 86.9931 3.50566C87.3407 3.41475 87.6825 3.3693 88.0185 3.3693C88.2328 3.3693 88.479 3.39486 88.7571 3.446C89.0381 3.4943 89.3089 3.59515 89.5696 3.74856C89.8332 3.90197 90.0519 4.1335 90.2257 4.44316C90.3995 4.75282 90.4864 5.16759 90.4864 5.68748V9.99998H89.461V9.11361H89.4088C89.3393 9.25566 89.2235 9.40765 89.0612 9.56958C88.899 9.73151 88.6832 9.8693 88.4138 9.98293C88.1445 10.0966 87.8157 10.1534 87.4276 10.1534ZM87.584 9.24998C87.9895 9.24998 88.3313 9.17185 88.6094 9.0156C88.8903 8.85935 89.1018 8.65765 89.2437 8.41049C89.3886 8.16333 89.461 7.90339 89.461 7.63066V6.7102C89.4175 6.76134 89.3219 6.80822 89.1742 6.85083C89.0294 6.8906 88.8614 6.92611 88.6702 6.95736C88.4819 6.98577 88.298 7.01134 88.1184 7.03407C87.9417 7.05395 87.7983 7.071 87.6882 7.0852C87.4218 7.1193 87.1727 7.17469 86.9409 7.2514C86.7121 7.32526 86.5267 7.43748 86.3848 7.58805C86.2457 7.73577 86.1762 7.93748 86.1762 8.19316C86.1762 8.54259 86.308 8.80679 86.5716 8.98577C86.8381 9.16191 87.1755 9.24998 87.584 9.24998Z" fill="white"/>
<path d="M94.6333 10.1363C94.0771 10.1363 93.5862 9.99856 93.1604 9.72299C92.7346 9.44458 92.4015 9.05253 92.161 8.54685C91.9206 8.03833 91.8004 7.43748 91.8004 6.7443C91.8004 6.0568 91.9206 5.4602 92.161 4.95452C92.4015 4.44884 92.736 4.05822 93.1647 3.78265C93.5934 3.50708 94.0887 3.3693 94.6507 3.3693C95.0852 3.3693 95.4284 3.44032 95.6804 3.58236C95.9353 3.72157 96.1294 3.88066 96.2626 4.05964C96.3988 4.23577 96.5045 4.38066 96.5798 4.4943H96.6667V1.27271H97.6921V9.99998H96.7015V8.9943H96.5798C96.5045 9.11361 96.3973 9.26418 96.2583 9.446C96.1193 9.62498 95.9208 9.78549 95.663 9.92753C95.4052 10.0667 95.062 10.1363 94.6333 10.1363ZM94.7723 9.23293C95.1837 9.23293 95.5312 9.12782 95.8151 8.91759C96.099 8.70452 96.3148 8.41049 96.4625 8.03549C96.6102 7.65765 96.6841 7.22157 96.6841 6.72725C96.6841 6.23861 96.6117 5.81106 96.4669 5.44458C96.322 5.07526 96.1077 4.78833 95.8238 4.58378C95.5399 4.3764 95.1894 4.2727 94.7723 4.2727C94.3378 4.2727 93.9758 4.38208 93.6861 4.60083C93.3993 4.81674 93.1835 5.11077 93.0387 5.48293C92.8968 5.85225 92.8258 6.26702 92.8258 6.72725C92.8258 7.19316 92.8982 7.61645 93.0431 7.99714C93.1908 8.37498 93.408 8.67611 93.6948 8.90055C93.9845 9.12214 94.3436 9.23293 94.7723 9.23293Z" fill="white"/>
<path d="M105.376 10.1363C104.773 10.1363 104.244 9.99572 103.79 9.71447C103.338 9.43322 102.984 9.03975 102.729 8.53407C102.477 8.02839 102.351 7.43748 102.351 6.76134C102.351 6.07952 102.477 5.48435 102.729 4.97583C102.984 4.46731 103.338 4.07242 103.79 3.79117C104.244 3.50992 104.773 3.3693 105.376 3.3693C105.978 3.3693 106.505 3.50992 106.957 3.79117C107.412 4.07242 107.765 4.46731 108.017 4.97583C108.272 5.48435 108.4 6.07952 108.4 6.76134C108.4 7.43748 108.272 8.02839 108.017 8.53407C107.765 9.03975 107.412 9.43322 106.957 9.71447C106.505 9.99572 105.978 10.1363 105.376 10.1363ZM105.376 9.23293C105.833 9.23293 106.21 9.11787 106.505 8.88776C106.801 8.65765 107.019 8.35509 107.161 7.98009C107.303 7.60509 107.374 7.19884 107.374 6.76134C107.374 6.32384 107.303 5.91617 107.161 5.53833C107.019 5.16049 106.801 4.85509 106.505 4.62214C106.21 4.38918 105.833 4.2727 105.376 4.2727C104.918 4.2727 104.541 4.38918 104.246 4.62214C103.95 4.85509 103.732 5.16049 103.59 5.53833C103.448 5.91617 103.377 6.32384 103.377 6.76134C103.377 7.19884 103.448 7.60509 103.59 7.98009C103.732 8.35509 103.95 8.65765 104.246 8.88776C104.541 9.11787 104.918 9.23293 105.376 9.23293Z" fill="white"/>
<path d="M110.746 6.06248V9.99998H109.72V3.45452H110.711V4.47725H110.798C110.954 4.14486 111.192 3.87782 111.51 3.67611C111.829 3.47157 112.24 3.3693 112.744 3.3693C113.196 3.3693 113.591 3.4602 113.93 3.64202C114.269 3.821 114.533 4.09373 114.721 4.4602C114.909 4.82384 115.004 5.28407 115.004 5.84089V9.99998H113.978V5.90907C113.978 5.39486 113.842 4.9943 113.57 4.70736C113.297 4.41759 112.924 4.2727 112.449 4.2727C112.121 4.2727 111.829 4.34231 111.571 4.48151C111.316 4.62072 111.115 4.82384 110.967 5.09089C110.819 5.35793 110.746 5.6818 110.746 6.06248Z" fill="white"/>
<path d="M122.731 3.45452V4.3068H119.273V3.45452H122.731ZM120.281 1.88634H121.306V8.12498C121.306 8.40907 121.348 8.62214 121.432 8.76418C121.519 8.90339 121.629 8.99714 121.763 9.04543C121.899 9.09089 122.042 9.11361 122.193 9.11361C122.306 9.11361 122.398 9.10793 122.471 9.09657C122.543 9.08236 122.601 9.071 122.645 9.06248L122.853 9.96589C122.784 9.99145 122.687 10.017 122.562 10.0426C122.437 10.071 122.28 10.0852 122.088 10.0852C121.799 10.0852 121.515 10.0241 121.237 9.90197C120.962 9.77981 120.733 9.59373 120.55 9.34373C120.371 9.09373 120.281 8.77839 120.281 8.3977V1.88634Z" fill="white"/>
<path d="M125.198 6.06248V9.99998H124.173V1.27271H125.198V4.47725H125.285C125.441 4.13918 125.676 3.87072 125.989 3.67185C126.304 3.47015 126.725 3.3693 127.249 3.3693C127.704 3.3693 128.102 3.45878 128.444 3.63776C128.785 3.8139 129.05 4.08521 129.239 4.45168C129.43 4.81532 129.526 5.27839 129.526 5.84089V9.99998H128.5V5.90907C128.5 5.38918 128.363 4.98719 128.087 4.7031C127.815 4.41617 127.437 4.2727 126.953 4.2727C126.617 4.2727 126.316 4.34231 126.05 4.48151C125.786 4.62072 125.577 4.82384 125.424 5.09089C125.273 5.35793 125.198 5.6818 125.198 6.06248Z" fill="white"/>
<path d="M133.955 10.1363C133.312 10.1363 132.757 9.99714 132.291 9.71873C131.827 9.43748 131.47 9.04543 131.218 8.54259C130.968 8.03691 130.844 7.44884 130.844 6.77839C130.844 6.10793 130.968 5.51702 131.218 5.00566C131.47 4.49146 131.82 4.09089 132.269 3.80395C132.721 3.51418 133.248 3.3693 133.851 3.3693C134.198 3.3693 134.541 3.42611 134.88 3.53975C135.219 3.65339 135.528 3.83805 135.806 4.09373C136.084 4.34657 136.305 4.6818 136.471 5.09941C136.636 5.51702 136.718 6.03123 136.718 6.64202V7.06816H131.574V6.19884H135.675C135.675 5.82952 135.6 5.49998 135.45 5.2102C135.302 4.92043 135.09 4.69174 134.815 4.52413C134.543 4.35651 134.221 4.2727 133.851 4.2727C133.442 4.2727 133.089 4.37214 132.79 4.571C132.495 4.76702 132.268 5.0227 132.108 5.33805C131.949 5.65339 131.869 5.99146 131.869 6.35225V6.9318C131.869 7.42611 131.956 7.84515 132.13 8.1889C132.307 8.52981 132.551 8.78975 132.864 8.96873C133.177 9.14486 133.541 9.23293 133.955 9.23293C134.224 9.23293 134.468 9.196 134.685 9.12214C134.905 9.04543 135.095 8.9318 135.254 8.78123C135.413 8.62782 135.536 8.43748 135.623 8.2102L136.614 8.48293C136.51 8.81248 136.334 9.10225 136.088 9.35225C135.842 9.59941 135.538 9.79259 135.176 9.9318C134.814 10.0682 134.407 10.1363 133.955 10.1363Z" fill="white"/>
<path d="M46.4436 32.0001L47.7592 28.1444H53.7534L55.0767 32.0001H58.1595L52.5389 16.3637H48.9736L43.3608 32.0001H46.4436ZM48.5376 25.8692L50.694 19.5704H50.8185L52.9749 25.8692H48.5376Z" fill="white"/>
<path d="M60.1348 36.3978H62.9529V30.1524H63.0696C63.5134 31.0075 64.4397 32.2062 66.4949 32.2062C69.3129 32.2062 71.4226 30.015 71.4226 26.1517C71.4226 22.2426 69.2506 20.1201 66.4871 20.1201C64.3775 20.1201 63.4978 21.3646 63.0696 22.212H62.9062V20.2728H60.1348V36.3978ZM62.8984 26.1364C62.8984 23.8612 63.8948 22.3877 65.7086 22.3877C67.5847 22.3877 68.55 23.9528 68.55 26.1364C68.55 28.3353 67.5692 29.9386 65.7086 29.9386C63.9104 29.9386 62.8984 28.4116 62.8984 26.1364Z" fill="white"/>
<path d="M73.8358 36.3978H76.6539V30.1524H76.7706C77.2143 31.0075 78.1407 32.2062 80.1959 32.2062C83.0139 32.2062 85.1236 30.015 85.1236 26.1517C85.1236 22.2426 82.9516 20.1201 80.1881 20.1201C78.0784 20.1201 77.1988 21.3646 76.7706 22.212H76.6071V20.2728H73.8358V36.3978ZM76.5994 26.1364C76.5994 23.8612 77.5958 22.3877 79.4096 22.3877C81.2857 22.3877 82.251 23.9528 82.251 26.1364C82.251 28.3353 81.2701 29.9386 79.4096 29.9386C77.6114 29.9386 76.5994 28.4116 76.5994 26.1364Z" fill="white"/>
<path d="M101.763 20.6622H104.542C104.488 18.0205 102.191 16.1499 98.7973 16.1499C95.4499 16.1499 92.9355 17.9976 92.9432 20.7614C92.9432 23.0061 94.5702 24.2964 97.1937 24.9606L99.0075 25.4187C100.728 25.8463 101.864 26.3731 101.872 27.5871C101.864 28.9232 100.572 29.8165 98.6883 29.8165C96.8823 29.8165 95.481 29.0224 95.3643 27.3809H92.5229C92.6396 30.4883 94.9984 32.2367 98.7117 32.2367C102.534 32.2367 104.753 30.3662 104.76 27.61C104.753 24.8996 102.472 23.6627 100.074 23.1053L98.5793 22.7389C97.2715 22.4335 95.8547 21.8914 95.8703 20.5858C95.8781 19.41 96.9523 18.5473 98.7584 18.5473C100.479 18.5473 101.615 19.3337 101.763 20.6622Z" fill="white"/>
<path d="M113.181 20.2728H110.823V17.4631H108.005V20.2728H106.308V22.4106H108.005V28.9308C107.989 31.1373 109.624 32.2215 111.741 32.1604C112.543 32.1375 113.096 31.9848 113.399 31.8855L112.924 29.7248C112.769 29.763 112.45 29.8317 112.099 29.8317C111.391 29.8317 110.823 29.5874 110.823 28.4727V22.4106H113.181V20.2728Z" fill="white"/>
<path d="M120.625 32.2291C124.129 32.2291 126.355 29.8088 126.355 26.1822C126.355 22.548 124.129 20.1201 120.625 20.1201C117.122 20.1201 114.896 22.548 114.896 26.1822C114.896 29.8088 117.122 32.2291 120.625 32.2291ZM120.641 30.015C118.703 30.015 117.753 28.32 117.753 26.1746C117.753 24.0292 118.703 22.3113 120.641 22.3113C122.548 22.3113 123.498 24.0292 123.498 26.1746C123.498 28.32 122.548 30.015 120.641 30.015Z" fill="white"/>
<path d="M128.747 32.0001H131.565V25.1057C131.565 23.6169 132.709 22.5633 134.258 22.5633C134.733 22.5633 135.325 22.6472 135.566 22.7236V20.1812C135.309 20.1353 134.866 20.1048 134.554 20.1048C133.184 20.1048 132.04 20.8683 131.604 22.2273H131.479V20.2728H128.747V32.0001Z" fill="white"/>
<path d="M142.24 32.2291C145.026 32.2291 146.941 30.893 147.44 28.8545L144.808 28.5643C144.427 29.5569 143.493 30.076 142.278 30.076C140.457 30.076 139.25 28.9003 139.227 26.8923H147.556V26.0448C147.556 21.9296 145.034 20.1201 142.092 20.1201C138.666 20.1201 136.432 22.5862 136.432 26.2051C136.432 29.8852 138.635 32.2291 142.24 32.2291ZM139.235 25.0293C139.32 23.5329 140.449 22.2731 142.131 22.2731C143.75 22.2731 144.84 23.4336 144.855 25.0293H139.235Z" fill="white"/>
</svg>
