<svg width="25" height="24" viewBox="0 0 25 24" fill="none" xmlns="http://www.w3.org/2000/svg">
<path d="M7.25 2.5C7.80812 2.5 8.36077 2.60993 8.87641 2.82351C9.39204 3.03709 9.86056 3.35015 10.2552 3.7448C10.6499 4.13945 10.9629 4.60796 11.1765 5.1236C11.3901 5.63923 11.5 6.19188 11.5 6.75V11H7.25C6.12283 11 5.04183 10.5522 4.2448 9.7552C3.44777 8.95817 3 7.87717 3 6.75C3 5.62283 3.44777 4.54183 4.2448 3.7448C5.04183 2.94777 6.12283 2.5 7.25 2.5ZM7.25 13H11.5V17.25C11.5 18.0906 11.2507 18.9123 10.7837 19.6112C10.3168 20.3101 9.65299 20.8548 8.87641 21.1765C8.09982 21.4982 7.24529 21.5823 6.42087 21.4183C5.59645 21.2543 4.83917 20.8496 4.2448 20.2552C3.65042 19.6608 3.24565 18.9036 3.08166 18.0791C2.91768 17.2547 3.00184 16.4002 3.32351 15.6236C3.64519 14.847 4.18992 14.1833 4.88883 13.7163C5.58774 13.2493 6.40943 13 7.25 13ZM17.75 2.5C18.8772 2.5 19.9582 2.94777 20.7552 3.7448C21.5522 4.54183 22 5.62283 22 6.75C22 7.87717 21.5522 8.95817 20.7552 9.7552C19.9582 10.5522 18.8772 11 17.75 11H13.5V6.75C13.5 5.62283 13.9478 4.54183 14.7448 3.7448C15.5418 2.94777 16.6228 2.5 17.75 2.5ZM13.5 13H17.75C18.5906 13 19.4123 13.2493 20.1112 13.7163C20.8101 14.1833 21.3548 14.847 21.6765 15.6236C21.9982 16.4002 22.0823 17.2547 21.9183 18.0791C21.7544 18.9036 21.3496 19.6608 20.7552 20.2552C20.1608 20.8496 19.4036 21.2543 18.5791 21.4183C17.7547 21.5823 16.9002 21.4982 16.1236 21.1765C15.347 20.8548 14.6833 20.3101 14.2163 19.6112C13.7493 18.9123 13.5 18.0906 13.5 17.25V13Z" fill="#37BFE4"/>
<path d="M20.7552 3.7448C19.9582 2.94777 18.8772 2.5 17.75 2.5C16.6228 2.5 15.5418 2.94777 14.7448 3.7448C13.9478 4.54183 13.5 5.62283 13.5 6.75V11H17.75C18.8772 11 19.9582 10.5522 20.7552 9.7552C21.5522 8.95817 22 7.87717 22 6.75C22 5.62283 21.5522 4.54183 20.7552 3.7448Z" fill="#FFD12A"/>
<path d="M8.8764 2.82351C8.36077 2.60993 7.80812 2.5 7.25 2.5C6.12283 2.5 5.04183 2.94777 4.2448 3.7448C3.44777 4.54183 3 5.62283 3 6.75C3 7.87717 3.44777 8.95817 4.2448 9.7552C5.04183 10.5522 6.12283 11 7.25 11H11.5V6.75C11.5 6.19188 11.3901 5.63923 11.1765 5.1236C10.9629 4.60796 10.6499 4.13945 10.2552 3.7448C9.86056 3.35015 9.39204 3.03709 8.8764 2.82351Z" fill="#F12D83"/>
<path d="M17.75 13H13.5V17.25C13.5 18.0906 13.7493 18.9123 14.2163 19.6112C14.6833 20.3101 15.347 20.8548 16.1236 21.1765C16.9002 21.4982 17.7547 21.5823 18.5791 21.4183C19.4036 21.2543 20.1608 20.8496 20.7552 20.2552C21.3496 19.6608 21.7543 18.9036 21.9183 18.0791C22.0823 17.2547 21.9982 16.4002 21.6765 15.6236C21.3548 14.847 20.8101 14.1833 20.1112 13.7163C19.4123 13.2493 18.5906 13 17.75 13Z" fill="#8FD459"/>
</svg>
