<svg width="26" height="26" viewBox="0 0 26 26" fill="none" xmlns="http://www.w3.org/2000/svg">
<g clip-path="url(#clip0)">
<path d="M13 26H19.5V23.4H13C7.358 23.4 2.6 18.642 2.6 13C2.6 7.358 7.358 2.6 13 2.6C18.642 2.6 23.4 7.358 23.4 13V14.859C23.4 15.886 22.477 16.9 21.45 16.9C20.423 16.9 19.5 15.886 19.5 14.859V13C19.5 9.412 16.588 6.5 13 6.5C9.412 6.5 6.5 9.412 6.5 13C6.5 16.588 9.412 19.5 13 19.5C14.794 19.5 16.432 18.772 17.602 17.589C18.447 18.746 19.903 19.5 21.45 19.5C24.011 19.5 26 17.42 26 14.859V13C26 5.824 20.176 0 13 0C5.824 0 0 5.824 0 13C0 20.176 5.824 26 13 26ZM13 16.9C10.842 16.9 9.1 15.158 9.1 13C9.1 10.842 10.842 9.1 13 9.1C15.158 9.1 16.9 10.842 16.9 13C16.9 15.158 15.158 16.9 13 16.9Z" fill="#31C1FF"/>
</g>
<defs>
<clipPath id="clip0">
<rect width="26" height="26" fill="white"/>
</clipPath>
</defs>
</svg>
