<svg width="36" height="36" viewBox="0 0 36 36" fill="none" xmlns="http://www.w3.org/2000/svg">
<path d="M18.0001 0C8.05903 0 0 8.09272 0 18.0754C0 27.0286 6.48939 34.4434 14.998 35.8793V21.8464H10.6559V16.7965H14.998V13.0729C14.998 8.75252 17.6258 6.39815 21.4645 6.39815C23.3029 6.39815 24.8829 6.53571 25.3415 6.5963V11.1123L22.6792 11.1136C20.592 11.1136 20.1896 12.1093 20.1896 13.571V16.7939H25.1697L24.5202 21.8438H20.1896V36C29.0955 34.9115 36 27.3079 36 18.0702C36 8.09272 27.941 0 18.0001 0Z" fill="white"/>
<style xmlns="" id="autoconsent-prehide"/></svg>