<svg width="836" height="741" viewBox="0 0 836 741" fill="none" xmlns="http://www.w3.org/2000/svg">
<g filter="url(#filter0_d)">
<path d="M8 263.518C8 252.963 13.5472 243.184 22.6073 237.768L396.607 14.2013C406.087 8.53472 417.913 8.53473 427.393 14.2013L801.393 237.768C810.453 243.184 816 252.963 816 263.518V687.5C816 704.069 802.569 717.5 786 717.5H38C21.4314 717.5 8 704.069 8 687.5V263.518Z" fill="url(#paint0_linear)"/>
</g>
<path d="M411.435 613.5L18 254.5H807L411.435 613.5Z" fill="url(#paint1_linear)"/>
<g filter="url(#filter1_d)">
<path d="M412.5 456.5L782 717.5H43L412.5 456.5Z" fill="url(#paint2_linear)"/>
</g>
<defs>
<filter id="filter0_d" x="0" y="0.951416" width="840" height="739.549" filterUnits="userSpaceOnUse" color-interpolation-filters="sRGB">
<feFlood flood-opacity="0" result="BackgroundImageFix"/>
<feColorMatrix in="SourceAlpha" type="matrix" values="0 0 0 0 0 0 0 0 0 0 0 0 0 0 0 0 0 0 127 0"/>
<feOffset dx="8" dy="7"/>
<feGaussianBlur stdDeviation="8"/>
<feColorMatrix type="matrix" values="0 0 0 0 0.754514 0 0 0 0 0.8215 0 0 0 0 0.883333 0 0 0 0.21 0"/>
<feBlend mode="normal" in2="BackgroundImageFix" result="effect1_dropShadow"/>
<feBlend mode="normal" in="SourceGraphic" in2="effect1_dropShadow" result="shape"/>
</filter>
<filter id="filter1_d" x="27" y="437.5" width="771" height="293" filterUnits="userSpaceOnUse" color-interpolation-filters="sRGB">
<feFlood flood-opacity="0" result="BackgroundImageFix"/>
<feColorMatrix in="SourceAlpha" type="matrix" values="0 0 0 0 0 0 0 0 0 0 0 0 0 0 0 0 0 0 127 0"/>
<feOffset dy="-3"/>
<feGaussianBlur stdDeviation="8"/>
<feColorMatrix type="matrix" values="0 0 0 0 0.176471 0 0 0 0 0.772549 0 0 0 0 0.8 0 0 0 0.21 0"/>
<feBlend mode="normal" in2="BackgroundImageFix" result="effect1_dropShadow"/>
<feBlend mode="normal" in="SourceGraphic" in2="effect1_dropShadow" result="shape"/>
</filter>
<linearGradient id="paint0_linear" x1="412" y1="-16" x2="412" y2="717.5" gradientUnits="userSpaceOnUse">
<stop stop-color="#F5FDFF"/>
<stop offset="1" stop-color="#D3F6FF"/>
</linearGradient>
<linearGradient id="paint1_linear" x1="413.032" y1="284.861" x2="410.516" y2="561.477" gradientUnits="userSpaceOnUse">
<stop stop-color="#7AE7FF" stop-opacity="0"/>
<stop offset="1" stop-color="#C5EEF0"/>
</linearGradient>
<linearGradient id="paint2_linear" x1="412.5" y1="456.5" x2="412.5" y2="717.5" gradientUnits="userSpaceOnUse">
<stop stop-color="#DEF9FF"/>
<stop offset="1" stop-color="#DEF2F7"/>
</linearGradient>
</defs>
</svg>
