<svg width="156" height="38" viewBox="0 0 156 38" fill="none" xmlns="http://www.w3.org/2000/svg">
<path d="M30.9557 24.5348C34.9627 22.389 38.0006 20.7541 38.2625 20.6271C39.0998 20.1925 39.965 19.0428 38.2625 18.1499C37.7127 17.8691 34.753 16.2848 30.9557 14.2422L25.6919 19.4265L30.9554 24.5348H30.9557Z" fill="#FFD900"/>
<path d="M25.6915 19.4265L8.93018 35.901C9.32333 35.9519 9.76753 35.8501 10.2914 35.5693C11.3909 34.9826 23.0455 28.7753 30.9556 24.5359L25.6915 19.4265V19.4265Z" fill="#F43249"/>
<path d="M25.691 19.4265L30.9545 14.2673C30.9545 14.2673 11.4698 3.89727 10.2906 3.28537C9.84697 3.02809 9.34915 2.95202 8.90381 3.02809L25.691 19.4262V19.4265Z" fill="#00EE76"/>
<path d="M25.6916 19.4256L8.90414 3.02747C8.22279 3.181 7.64697 3.76801 7.64697 4.96803V33.9587C7.64697 35.0578 8.0926 35.8492 8.92995 35.9253L25.6913 19.4253L25.6916 19.4256Z" fill="#00D3FF"/>
<path d="M79.6256 22.8148C76.7502 22.8148 74.3744 25.0264 74.3744 28.0587C74.3744 31.0662 76.7252 33.3026 79.6259 33.3026C82.5262 33.3026 84.8768 31.091 84.8768 28.0587C84.8768 25.0264 82.5262 22.8148 79.6256 22.8148ZM79.6256 31.2159C78.0499 31.2159 76.6754 29.8982 76.6754 28.0353C76.6754 26.1464 78.051 24.8547 79.6256 24.8547C81.2002 24.8547 82.5758 26.1464 82.5758 28.0353C82.5758 29.8982 81.2002 31.2159 79.6256 31.2159ZM68.198 22.8148C65.2974 22.8148 62.9466 25.0264 62.9466 28.0587C62.9466 31.0662 65.2974 33.3026 68.198 33.3026C71.0984 33.3026 73.4492 31.091 73.4492 28.0587C73.4492 25.0264 71.0984 22.8148 68.1978 22.8148H68.198ZM68.198 31.2159C66.622 31.2159 65.2478 29.8982 65.2478 28.0353C65.2478 26.1464 66.6234 24.8547 68.198 24.8547C69.7737 24.8547 71.1482 26.1464 71.1482 28.0353C71.1482 29.8982 69.7973 31.2159 68.198 31.2159ZM54.6198 24.4304V26.642H59.9205C59.7699 27.8845 59.3461 28.804 58.7205 29.4258C57.9456 30.196 56.7453 31.0415 54.6198 31.0415C51.3435 31.0415 48.8188 28.4073 48.8188 25.1513C48.8188 21.8953 51.3448 19.2113 54.6198 19.2113C56.3945 19.2113 57.6707 19.9074 58.6208 20.8024L60.1954 19.2361C58.8697 17.969 57.0949 17 54.6198 17C50.1431 17 46.3921 20.6528 46.3921 25.1017C46.3921 29.551 50.1431 33.2038 54.6198 33.2038C57.0451 33.2038 58.8461 32.4089 60.2962 30.9168C61.7714 29.4506 62.2215 27.3873 62.2215 25.7225C62.2215 25.2008 62.172 24.7284 62.0961 24.3305L54.6198 24.4304V24.4304ZM110.183 26.1451C109.757 24.9768 108.408 22.8148 105.706 22.8148C103.005 22.8148 100.78 24.9276 100.78 28.0587C100.78 30.9908 103.005 33.3026 105.956 33.3026C108.357 33.3026 109.732 31.8363 110.307 30.9908L108.532 29.7981C107.932 30.6684 107.132 31.2393 105.956 31.2393C104.781 31.2393 103.956 30.7176 103.43 29.6484L110.407 26.741L110.183 26.1451V26.1451ZM103.081 27.9104C103.031 25.8966 104.657 24.8533 105.806 24.8533C106.731 24.8533 107.481 25.3007 107.756 25.972L103.081 27.9104V27.9104ZM97.4042 32.955H99.7052V17.5957H97.4042V32.955V32.955ZM93.6543 23.983H93.5795C93.0546 23.3612 92.0796 22.8148 90.8284 22.8148C88.2026 22.8148 85.8272 25.1265 85.8272 28.0587C85.8272 30.9908 88.2276 33.2781 90.8284 33.2781C92.0783 33.2781 93.0535 32.7314 93.5795 32.0848H93.6543V32.8304C93.6543 34.8441 92.5782 35.912 90.8533 35.912C89.4528 35.912 88.5772 34.8934 88.2276 34.0479L86.2277 34.8934C86.8022 36.2853 88.3283 38 90.8533 38C93.5535 38 95.8296 36.4091 95.8296 32.5572V23.1375H93.6543V23.983V23.983ZM91.0285 31.2159C89.4528 31.2159 88.1282 29.8982 88.1282 28.06C88.1282 26.2218 89.4539 24.8791 91.0285 24.8791C92.5796 24.8791 93.8295 26.2218 93.8295 28.06C93.8284 29.8735 92.5782 31.2159 91.0285 31.2159ZM120.91 17.596H115.409V32.955H117.71V27.1389H120.91C123.461 27.1389 125.961 25.2993 125.961 22.3674C125.961 19.4353 123.461 17.5957 120.91 17.5957V17.596ZM120.985 25.003H117.734V19.733H120.985C122.685 19.733 123.685 21.1497 123.685 22.3671C123.661 23.5602 122.686 25.003 120.985 25.003ZM135.139 22.79C133.489 22.79 131.763 23.5109 131.063 25.1513L133.089 25.9968C133.539 25.1513 134.339 24.8781 135.19 24.8781C136.39 24.8781 137.59 25.5987 137.615 26.8657V27.0153C137.19 26.7669 136.316 26.4183 135.215 26.4183C133.015 26.4183 130.788 27.6361 130.788 29.8735C130.788 31.9365 132.589 33.2533 134.589 33.2533C136.14 33.2533 136.99 32.5572 137.514 31.7376H137.589V32.9306H139.814V27.0398C139.789 24.3314 137.764 22.7898 135.139 22.7898V22.79ZM134.864 31.1911C134.114 31.1911 133.063 30.8178 133.063 29.8993C133.063 28.7063 134.363 28.259 135.488 28.259C136.488 28.259 136.964 28.4826 137.589 28.7806C137.414 30.1973 136.189 31.1911 134.864 31.1911V31.1911ZM147.842 23.1389L145.216 29.7744H145.141L142.416 23.1386H139.941L144.042 32.4334L141.716 37.628H144.116L150.392 23.1386H147.841L147.842 23.1389ZM127.237 32.955H129.538V17.5957H127.237V32.955Z" fill="white"/>
<path d="M51.396 1.54802C50.5151 1.54802 49.7606 1.86402 49.1325 2.49602C48.5126 3.12802 48.2026 3.90002 48.2026 4.81202C48.2026 5.69202 48.4962 6.45202 49.0835 7.09202C49.679 7.73202 50.5069 8.05202 51.5673 8.05202C52.3177 8.05202 52.9907 7.86402 53.5861 7.48802V5.77202H51.1758V4.80002H54.6995V7.95602C53.8186 8.74002 52.7541 9.13202 51.5061 9.13202C50.2092 9.13202 49.1243 8.71602 48.2515 7.88402C47.3869 7.04402 46.9546 6.02402 46.9546 4.82402C46.9546 3.61602 47.3869 2.58802 48.2515 1.74002C49.1243 0.892018 50.1725 0.468018 51.396 0.468018C52.6358 0.468018 53.6758 0.776018 54.516 1.39202L54.0388 2.31602C53.6636 2.07602 53.3047 1.89602 52.9621 1.77602C52.6195 1.65602 52.3544 1.58802 52.1668 1.57202C51.9792 1.55602 51.7223 1.54802 51.396 1.54802Z" fill="white"/>
<path d="M62.0328 8.01602V9.00002H56.5881V0.600017H62.0328V1.58402H57.8116V4.39202H61.4944V5.37602H57.8116V8.01602H62.0328Z" fill="white"/>
<path d="M62.85 0.600017H69.7752V1.58402H66.9244V9.00002H65.7009V1.58402H62.85V0.600017Z" fill="white"/>
<path d="M75.2684 0.600017V9.00002H74.0449V0.600017H75.2684Z" fill="white"/>
<path d="M76.6864 0.600017H83.6116V1.58402H80.7608V9.00002H79.5373V1.58402H76.6864V0.600017Z" fill="white"/>
<path d="M88.542 7.86002C87.6773 7.01202 87.245 5.99202 87.245 4.80002C87.245 3.60802 87.6773 2.58802 88.542 1.74002C89.4148 0.892018 90.4629 0.468018 91.6864 0.468018C92.91 0.468018 93.954 0.892018 94.8187 1.74002C95.6915 2.58802 96.1278 3.60802 96.1278 4.80002C96.1278 5.99202 95.6915 7.01202 94.8187 7.86002C93.954 8.70802 92.91 9.13202 91.6864 9.13202C90.4629 9.13202 89.4148 8.70802 88.542 7.86002ZM89.4229 2.48402C88.803 3.10802 88.493 3.88002 88.493 4.80002C88.493 5.72002 88.803 6.49202 89.4229 7.11602C90.0428 7.74002 90.7973 8.05202 91.6864 8.05202C92.5755 8.05202 93.33 7.74002 93.95 7.11602C94.5699 6.49202 94.8798 5.72002 94.8798 4.80002C94.8798 3.88002 94.5699 3.10802 93.95 2.48402C93.33 1.86002 92.5755 1.54802 91.6864 1.54802C90.7973 1.54802 90.0428 1.86002 89.4229 2.48402Z" fill="white"/>
<path d="M103.816 9.00002L99.1177 2.78402V9.00002H97.8941V0.600017H98.7995L103.486 6.79202V0.600017H104.721V9.00002H103.816Z" fill="white"/>
</svg>
