<svg width="30" height="30" viewBox="0 0 30 30" fill="none" xmlns="http://www.w3.org/2000/svg">
<g clip-path="url(#clip0)">
<path fill-rule="evenodd" clip-rule="evenodd" d="M19.7151 7.43156L24.5745 3.45328C21.9766 1.29645 18.6396 0 15 0C9.20283 0 4.1738 3.28835 1.67731 8.1014H1.67719C0.604922 10.1668 0 12.5124 0 14.9998C0 17.572 0.646992 19.9926 1.78764 22.1082L1.78858 22.1082L1.78764 22.109C4.32117 26.8076 9.28764 30.0004 15 30.0004C18.5546 30.0004 21.8201 28.7642 24.3906 26.698L24.3898 26.6972L24.3896 26.697L24.3899 26.697L24.3907 26.6978C27.0338 24.5731 28.9418 21.5706 29.672 18.1322C29.8871 17.1217 30 16.0742 30 15.0003C30 14.0426 29.9102 13.1055 29.7379 12.1981H23.4677H15.3298V18.1322H23.3507C22.6287 20.0591 21.2581 21.6687 19.5042 22.6973L19.5043 22.6976L19.5041 22.6974C18.183 23.473 16.6434 23.9172 15 23.9172C11.1766 23.9172 7.91537 21.5106 6.64863 18.1299L6.64838 18.1301L6.64863 18.1291C6.28271 17.1558 6.08326 16.1009 6.08314 14.9998C6.08314 13.9853 6.25293 13.0103 6.56444 12.1021L6.56455 12.1022C7.76783 8.60021 11.0901 6.0832 15 6.0832C16.7316 6.0832 18.3478 6.57691 19.7151 7.43156Z" fill="white"/>
<path fill-rule="evenodd" clip-rule="evenodd" d="M19.7151 7.43156L24.5745 3.45328C21.9766 1.29645 18.6396 0 15 0C9.20283 0 4.1738 3.28835 1.67731 8.1014H1.67719C0.604922 10.1668 0 12.5124 0 14.9998C0 17.572 0.646992 19.9926 1.78764 22.1082L1.78858 22.1082L1.78764 22.109C4.32117 26.8076 9.28764 30.0004 15 30.0004C18.5546 30.0004 21.8201 28.7642 24.3906 26.698L24.3898 26.6972L24.3896 26.697L24.3899 26.697L24.3907 26.6978C27.0338 24.5731 28.9418 21.5706 29.672 18.1322C29.8871 17.1217 30 16.0742 30 15.0003C30 14.0426 29.9102 13.1055 29.7379 12.1981H23.4677H15.3298V18.1322H23.3507C22.6287 20.0591 21.2581 21.6687 19.5042 22.6973L19.5043 22.6976L19.5041 22.6974C18.183 23.473 16.6434 23.9172 15 23.9172C11.1766 23.9172 7.91537 21.5106 6.64863 18.1299L6.64838 18.1301L6.64863 18.1291C6.28271 17.1558 6.08326 16.1009 6.08314 14.9998C6.08314 13.9853 6.25293 13.0103 6.56444 12.1021L6.56455 12.1022C7.76783 8.60021 11.0901 6.0832 15 6.0832C16.7316 6.0832 18.3478 6.57691 19.7151 7.43156Z" fill="white"/>
</g>
<defs>
<clipPath id="clip0">
<rect width="30" height="30" fill="white"/>
</clipPath>
</defs>
<style xmlns="" id="autoconsent-prehide"/></svg>