<svg width="40" height="40" viewBox="0 0 40 40" fill="none" xmlns="http://www.w3.org/2000/svg">
<path fill-rule="evenodd" clip-rule="evenodd" d="M20 40C8.97195 40 0 31.028 0 20C0 8.97195 8.97195 0 20 0C31.028 0 40 8.97195 40 20C40 31.028 31.028 40 20 40ZM30.3717 27.0259C30.6183 27.0259 30.819 26.8252 30.819 26.5786V14.0226L20.6432 22.1032C20.4549 22.2528 20.2273 22.3276 19.9999 22.3276C19.7725 22.3276 19.545 22.2527 19.3566 22.1032L9.18094 14.0226V26.5786C9.18094 26.8252 9.38164 27.0259 9.6282 27.0259H30.3717ZM28.8123 12.9741L20 19.9722L11.1876 12.9741H28.8123ZM32.888 13.4214V26.5788C32.888 27.9662 31.7591 29.095 30.3717 29.095H9.6282C8.2407 29.095 7.11203 27.9662 7.11203 26.5788V13.4214C7.11203 12.034 8.24078 10.9052 9.6282 10.9052H30.3717C31.7591 10.9052 32.888 12.034 32.888 13.4214Z" fill="#4F4F4F"/>
<style xmlns="" id="autoconsent-prehide"/></svg>