<svg width="1980" height="646" viewBox="0 0 1980 646" fill="none" xmlns="http://www.w3.org/2000/svg">
<g filter="url(#filter0_d)">
<path d="M530.443 133.444H332.458C329.131 91.8501 362.683 90.0477 379.875 94.3457C380.54 77.3756 399.285 79.5107 408.574 82.6996C405.912 72.7171 413.288 72.7171 417.309 73.9649C422.633 43.3522 449.197 51.5045 461.814 59.4072C471.464 37.1132 491.345 45.4041 500.08 52.3363C505.626 47.7611 519.878 40.1079 532.523 46.0973C545.167 52.0868 537.791 70.2215 532.523 78.5402C543.753 80.2039 566.214 88.6058 566.214 108.903C566.214 129.201 542.367 133.721 530.443 133.444Z" fill="url(#paint0_linear)"/>
<path d="M1530.36 133.628H1253.48C1248.83 75.2741 1295.75 72.7454 1319.79 78.7753C1320.72 54.967 1346.94 57.9625 1359.93 62.4363C1356.21 48.4314 1366.52 48.4314 1372.14 50.182C1379.59 7.23374 1416.74 18.6711 1434.38 29.7582C1447.88 -1.51931 1475.68 10.1125 1487.9 19.8381C1495.65 13.4192 1515.59 2.68214 1533.27 11.0851C1550.95 19.488 1540.64 44.9302 1533.27 56.6009C1548.98 58.9351 1580.39 70.7225 1580.39 99.1991C1580.39 127.676 1547.04 134.017 1530.36 133.628Z" fill="url(#paint1_linear)"/>
<path d="M825.334 271.15H680.335C677.898 240.628 702.47 239.306 715.061 242.46C715.549 230.007 729.277 231.574 736.08 233.914C734.13 226.588 739.532 226.588 742.477 227.504C746.376 205.04 765.831 211.022 775.071 216.821C782.139 200.462 796.699 206.546 803.096 211.633C807.158 208.275 817.596 202.659 826.857 207.055C836.117 211.45 830.715 224.757 826.857 230.861C835.081 232.082 851.531 238.248 851.531 253.142C851.531 268.037 834.066 271.353 825.334 271.15Z" fill="url(#paint2_linear)"/>
<path d="M2058.16 206.34H1852.62C1849.17 166.16 1884 164.419 1901.85 168.571C1902.54 152.177 1922 154.24 1931.64 157.32C1928.88 147.677 1936.54 147.677 1940.71 148.882C1946.24 119.31 1973.81 127.185 1986.91 134.819C1996.93 113.282 2017.57 121.292 2026.64 127.988C2032.39 123.569 2047.19 116.175 2060.32 121.961C2073.44 127.747 2065.79 145.266 2060.32 153.302C2071.97 154.909 2095.29 163.026 2095.29 182.634C2095.29 202.242 2070.54 206.608 2058.16 206.34Z" fill="url(#paint3_linear)"/>
<path d="M1390.99 507.997C1413.04 484.566 1471.02 438.369 1526.59 441.031C1571.49 443.182 1585.74 444.573 1588.17 445.247C1589.49 423.551 1611.28 385.227 1688.39 402.765C1685.75 391.396 1687.89 369.574 1717.5 373.234C1715.7 332.334 1770.11 286.913 1848.52 298.366C1885.54 303.773 1921.39 327.731 1931.71 355.349C1947.79 335.661 1967.92 306.923 2027.04 306.923C2070.54 306.923 2117.74 341.617 2120.93 365.603C2141.04 348.134 2206.43 335.895 2259 381.481C2311.58 427.067 2312.56 584.746 2305.49 614H1319.79C1319.79 555.45 1376.35 521.694 1390.99 507.997Z" fill="url(#paint4_linear)"/>
<path d="M217.125 271.807C183.518 273.138 168.738 288.861 159.726 299.259C118.549 243.94 35.5019 303.141 49.9209 334.613C31.2039 322.274 -14.5489 303.834 -47.8237 328.79C-81.0984 353.746 -84.4259 405.184 -81.9303 427.783C-112.21 379.534 -213.365 379.95 -213.365 451.491C-348.129 451.491 -332.602 536.22 -321.926 614H159.727L1119.84 608.528C1119.84 563.655 1061.45 553.411 992.205 501.602C922.667 449.571 831.323 444.975 801.515 456.898C804.509 422.958 776.143 420.296 761.585 423.207C717.329 293.103 549.689 334.613 522.006 369.552C468.228 271.807 358.461 304.161 331.924 334.613C312.208 284.141 259.135 270.143 217.125 271.807Z" fill="url(#paint5_linear)"/>
</g>
<defs>
<filter id="filter0_d" x="-348.658" y="0" width="2677.27" height="646" filterUnits="userSpaceOnUse" color-interpolation-filters="sRGB">
<feFlood flood-opacity="0" result="BackgroundImageFix"/>
<feColorMatrix in="SourceAlpha" type="matrix" values="0 0 0 0 0 0 0 0 0 0 0 0 0 0 0 0 0 0 127 0"/>
<feOffset dy="12"/>
<feGaussianBlur stdDeviation="10"/>
<feColorMatrix type="matrix" values="0 0 0 0 0.176471 0 0 0 0 0.772549 0 0 0 0 0.8 0 0 0 0.21 0"/>
<feBlend mode="normal" in2="BackgroundImageFix" result="effect1_dropShadow"/>
<feBlend mode="normal" in="SourceGraphic" in2="effect1_dropShadow" result="shape"/>
</filter>
<linearGradient id="paint0_linear" x1="978.407" y1="8" x2="978.407" y2="670.688" gradientUnits="userSpaceOnUse">
<stop stop-color="white" stop-opacity="0.28"/>
<stop offset="0.817708" stop-color="white"/>
</linearGradient>
<linearGradient id="paint1_linear" x1="978.407" y1="8" x2="978.407" y2="670.688" gradientUnits="userSpaceOnUse">
<stop stop-color="white" stop-opacity="0.28"/>
<stop offset="0.817708" stop-color="white"/>
</linearGradient>
<linearGradient id="paint2_linear" x1="978.407" y1="8" x2="978.407" y2="670.688" gradientUnits="userSpaceOnUse">
<stop stop-color="white" stop-opacity="0.28"/>
<stop offset="0.817708" stop-color="white"/>
</linearGradient>
<linearGradient id="paint3_linear" x1="978.407" y1="8" x2="978.407" y2="670.688" gradientUnits="userSpaceOnUse">
<stop stop-color="white" stop-opacity="0.28"/>
<stop offset="0.817708" stop-color="white"/>
</linearGradient>
<linearGradient id="paint4_linear" x1="978.407" y1="8" x2="978.407" y2="670.688" gradientUnits="userSpaceOnUse">
<stop stop-color="white" stop-opacity="0.28"/>
<stop offset="0.817708" stop-color="white"/>
</linearGradient>
<linearGradient id="paint5_linear" x1="978.407" y1="8" x2="978.407" y2="670.688" gradientUnits="userSpaceOnUse">
<stop stop-color="white" stop-opacity="0.28"/>
<stop offset="0.817708" stop-color="white"/>
</linearGradient>
</defs>
</svg>
